<svg xmlns="http://www.w3.org/2000/svg" viewBox="0 0 29 28">
  <symbol id="save-icon"
    fill="currentColor">
      <path d="M.5 0h2.154v2.154H.5zm0 2.154h2.154v2.154H.5zm0 2.154h2.154v2.154H.5zm0 2.154h2.154v2.154H.5z"/>
      <path d="M.5 8.615h2.154v2.154H.5zm0 2.154h2.154v2.154H.5zm0 2.154h2.154v2.154H.5zm0 2.154h2.154v2.154H.5zm0 2.154h2.154v2.154H.5zm0 2.154h2.154v2.154H.5z"/>
      <path d="M.5 21.538h2.154v2.154H.5zm0 2.154h2.154v2.154H.5zm0 2.154h2.154V28H.5zM24.193 0v2.154h-2.154V0z"/>
      <path d="M22.04 0v2.154h-2.155V0zm-2.156 0v2.154H17.73V0zM17.73 0v2.154h-2.154V0z"/>
      <path d="M15.577 0v2.154h-2.154V0zm-2.154 0v2.154H11.27V0zM11.27 0v2.154H9.115V0z"/>
      <path d="M9.116 0v2.154H6.962V0zM6.96 0v2.154H4.808V0zM4.807 0v2.154H2.653V0zm21.539 2.154v2.154h-2.154V2.154zM6.96 4.308v2.154H4.808V4.308zm0-2.154v2.154H4.808V2.154zm0 4.308v2.154H4.808V6.462zm15.079-2.154v2.154h-2.154V4.308zm.001-2.154v2.154h-2.155V2.154z"/>
      <path d="M22.039 6.461v2.154h-2.154V6.461zM17.73 4.307v2.154h-2.154V4.307zm0-2.154v2.154h-2.154V2.153zm0 4.308v2.154h-2.154V6.461zm4.31 2.154v2.154h-2.155V8.615zm-2.156 0v2.154H17.73V8.615zm-2.154 0v2.154h-2.153V8.615zm-2.153 0v2.154h-2.154V8.615zm-2.154 0v2.154H11.27V8.615zm-2.153.001v2.154H9.116V8.616zm-2.154-.001v2.154H6.962V8.615zm-2.155 0v2.154H4.807V8.615zm17.231 6.462v2.154h-2.154v-2.154z"/>
      <path d="M22.039 15.077v2.154h-2.154v-2.154zm-2.155 0v2.154H17.73v-2.154zm-2.154-.001v2.154h-2.154v-2.154z"/>
      <path d="M15.577 15.077v2.154h-2.154v-2.154zm-2.154 0v2.154h-2.154v-2.154z"/>
      <path d="M11.27 15.077v2.154H9.114v-2.154z"/>
      <path d="M9.116 15.077v2.154H6.962v-2.154zm-2.156 0v2.154H4.808v-2.154zm17.232 2.154v2.154h-2.154v-2.154z"/>
      <path d="M6.96 17.23v2.155H4.808V17.23zm17.232 2.155v2.154h-2.154v-2.154zm-17.232 0v2.154H4.808v-2.154zm17.233 2.154v2.154H22.04v-2.154z"/>
      <path d="M6.961 21.538v2.154H4.807v-2.154zm0 2.154v2.154H4.807v-2.154zm17.232.001v2.154H22.04v-2.154z"/>
      <path d="M26.346 25.846V28h-2.154v-2.154z"/>
      <path d="M24.193 25.846V28h-2.154v-2.154z"/>
      <path d="M22.04 25.846V28h-2.155v-2.154zm-2.156 0V28H17.73v-2.154zm-2.154-.001V28h-2.154v-2.154z"/>
      <path d="M15.577 25.846V28h-2.154v-2.154zm-2.154 0V28H11.27v-2.154zm-2.153 0V28H9.114v-2.154z"/>
      <path d="M9.116 25.846V28H6.962v-2.154zm-2.156 0V28H4.808v-2.154zm-2.153 0V28H2.653v-2.154zM28.5 28h-2.154v-2.154H28.5zm0-2.154h-2.154v-2.154H28.5z"/>
      <path d="M28.5 23.693h-2.154v-2.154H28.5zm0-2.154h-2.154v-2.154H28.5zm0-2.154h-2.154V17.23H28.5zm0-2.155h-2.154v-2.153H28.5zm0-2.153h-2.154v-2.154H28.5zm0-2.154h-2.154V10.77H28.5zm0-2.153h-2.154V8.614H28.5z"/>
      <path d="M28.5 8.615h-2.154V6.461H28.5zm0-2.154h-2.154V4.307H28.5z"/>
  </symbol>
</svg>
